<svg width="70" height="70" viewBox="0 0 70 70" fill="none" xmlns="http://www.w3.org/2000/svg">
<path d="M47.458 35.0007C49.2372 35.0007 50.9435 34.2939 52.2015 33.0358C53.4596 31.7778 54.1663 30.0715 54.1663 28.2923C54.1663 26.6563 53.8441 25.0362 53.218 23.5247C52.5919 22.0132 51.6742 20.6398 50.5174 19.4829C49.3605 18.3261 47.9871 17.4084 46.4756 16.7823C44.9641 16.1562 43.3441 15.834 41.708 15.834C39.9288 15.834 38.2226 16.5408 36.9645 17.7988C35.7064 19.0569 34.9997 20.7632 34.9997 22.5423C34.9997 20.7632 34.2929 19.0569 33.0348 17.7988C31.7768 16.5408 30.0705 15.834 28.2913 15.834C24.9872 15.834 21.8184 17.1466 19.482 19.4829C17.1456 21.8193 15.833 24.9882 15.833 28.2923C15.833 30.0715 16.5398 31.7778 17.7978 33.0358C19.0559 34.2939 20.7622 35.0007 22.5413 35.0007C20.7622 35.0007 19.0559 35.7074 17.7978 36.9655C16.5398 38.2235 15.833 39.9298 15.833 41.709C15.833 43.345 16.1553 44.9651 16.7813 46.4766C17.4074 47.9881 18.3251 49.3615 19.482 50.5184C21.8184 52.8547 24.9872 54.1673 28.2913 54.1673C30.0705 54.1673 31.7768 53.4605 33.0348 52.2025C34.2929 50.9444 34.9997 49.2381 34.9997 47.459C34.9997 49.2381 35.7064 50.9444 36.9645 52.2025C38.2226 53.4605 39.9288 54.1673 41.708 54.1673C43.3441 54.1673 44.9641 53.8451 46.4756 53.219C47.9871 52.5929 49.3605 51.6752 50.5174 50.5184C51.6742 49.3615 52.5919 47.9881 53.218 46.4766C53.8441 44.9651 54.1663 43.345 54.1663 41.709C54.1663 39.9298 53.4596 38.2235 52.2015 36.9655C50.9435 35.7074 49.2372 35.0007 47.458 35.0007ZM34.9997 42.6673C32.9663 42.6673 31.0163 41.8596 29.5785 40.4218C28.1407 38.984 27.333 37.034 27.333 35.0007C27.333 32.9673 28.1407 31.0173 29.5785 29.5795C31.0163 28.1417 32.9663 27.334 34.9997 27.334C37.033 27.334 38.983 28.1417 40.4208 29.5795C41.8586 31.0173 42.6663 32.9673 42.6663 35.0007C42.6663 37.034 41.8586 38.984 40.4208 40.4218C38.983 41.8596 37.033 42.6673 34.9997 42.6673ZM39.7913 35.0007C39.7913 36.2715 39.2865 37.4903 38.3879 38.3889C37.4893 39.2875 36.2705 39.7923 34.9997 39.7923C33.7288 39.7923 32.5101 39.2875 31.6115 38.3889C30.7128 37.4903 30.208 36.2715 30.208 35.0007C30.208 33.7298 30.7128 32.511 31.6115 31.6124C32.5101 30.7138 33.7288 30.209 34.9997 30.209C36.2705 30.209 37.4893 30.7138 38.3879 31.6124C39.2865 32.511 39.7913 33.7298 39.7913 35.0007Z" fill="white"/>
</svg>
